<?xml version="1.0" encoding="utf-8"?>
<!-- Generator: Adobe Illustrator 16.0.0, SVG Export Plug-In . SVG Version: 6.00 Build 0)  -->
<!DOCTYPE svg PUBLIC "-//W3C//DTD SVG 1.1//EN" "http://www.w3.org/Graphics/SVG/1.1/DTD/svg11.dtd">
<svg version="1.1" id="Layer_1" xmlns="http://www.w3.org/2000/svg" xmlns:xlink="http://www.w3.org/1999/xlink" x="0px" y="0px"
	 width="35px" height="30px" viewBox="0 0 35 30" enable-background="new 0 0 35 30" xml:space="preserve">
<g>
	<path fill="#177EA4" d="M11.973,19.169c0,0,0.169,0.211,0.463,0.576c0.295,0.362,0.737,0.859,1.303,1.416
		c0.569,0.551,1.272,1.168,2.16,1.662c0.435,0.255,0.943,0.442,1.476,0.557c0.542,0.104,1.118,0.063,1.659-0.091
		c1.029-0.324,1.865-0.936,2.45-1.604c0.591-0.668,0.953-1.354,1.237-1.906c0.264-0.546,0.474-0.98,0.619-1.281
		c0.144-0.275,0.222-0.427,0.222-0.427c0.124-0.552-0.211-0.981-0.743-1.256c-0.533-0.276-1.223,0.166-1.346,0.745
		c0,0,0.051,0.489-0.018,1.32c-0.042,0.413-0.121,0.92-0.332,1.472c-0.211,0.546-0.572,1.143-1.182,1.59
		c-0.371,0.281-0.848,0.5-1.301,0.591c-0.439,0.112-0.9,0.038-1.322-0.133c-0.859-0.33-1.542-1.069-2.052-1.724
		c-0.512-0.671-0.855-1.322-1.078-1.782c-0.225-0.461-0.321-0.742-0.321-0.742c-0.245-0.458-0.845-0.651-1.4-0.435
		C11.917,17.934,11.672,18.606,11.973,19.169z"/>
</g>
<g>
	<path fill="#177EA4" d="M24.542,14.312c0,0,0.006-0.095-0.012-0.284c-0.012-0.187-0.025-0.458-0.104-0.818
		c-0.064-0.352-0.212-0.807-0.515-1.295c-0.453-0.579-0.701-0.668-1.051-1.043c-0.349-0.332-0.698-0.737-1.184-1.148
		c-0.247-0.202-0.521-0.402-0.859-0.555c-0.157-0.086-0.358-0.115-0.537-0.169c-0.182-0.044-0.313-0.046-0.469-0.073
		c-0.583-0.086-1.24-0.178-1.582-0.478C17.7,7.982,17.128,7.632,16.662,7.23c-0.254-0.246-0.449-0.472-0.67-0.705
		c-0.014-0.013-0.026-0.033-0.041-0.04L15.9,6.515L15.8,6.573l-0.199,0.115c-0.135,0.073-0.264,0.151-0.384,0.241
		c-0.213,0.147-0.42,0.291-0.62,0.429c-0.167,0.13-0.327,0.178-0.479,0.261c-0.137,0.085-0.273,0.17-0.407,0.253
		c-0.11,0.109-0.204,0.232-0.295,0.35c-0.132,0.224-0.247,0.443-0.333,0.626c-0.186,0.379-0.36,0.67-0.566,0.882
		c-0.112,0.093-0.189,0.212-0.314,0.266l-0.164,0.098c-0.06,0.038-0.078,0.043-0.194,0.128c-0.409,0.259-0.667,0.609-0.848,0.933
		c-0.147,0.316-0.263,0.61-0.312,0.84c-0.072,0.245-0.104,0.435-0.132,0.587c-0.054,0.302-0.083,0.463-0.083,0.463
		c0.027,0.838,0.548,1.356,1.137,1.355c0.598,0,1.035-0.713,1.013-1.393c0,0-0.042-0.122-0.082-0.331
		c-0.02-0.105-0.056-0.251-0.061-0.389c-0.006-0.075-0.013-0.155-0.02-0.242c0.005-0.073,0.011-0.152,0.018-0.235
		c-0.003-0.1,0.035-0.146,0.053-0.228c0.01-0.092,0.064-0.137,0.109-0.204c0-0.044,0.195-0.215,0.342-0.359
		c0.164-0.139,0.298-0.313,0.424-0.504c0.271-0.369,0.434-0.814,0.586-1.229c0.07-0.214,0.146-0.402,0.221-0.573l0.116-0.186
		c0.053-0.04,0.105-0.083,0.165-0.121c0.216-0.123,0.525-0.293,0.772-0.501l0.29-0.218c0.08-0.062,0.172-0.104,0.257-0.154
		c0.08-0.007,0.137,0.132,0.206,0.191l0.087,0.105l0.204,0.173c0.3,0.263,0.577,0.472,0.855,0.694l0.355,0.331
		c0.077,0.07,0.356,0.339,0.535,0.418c0.401,0.224,0.773,0.326,1.129,0.427l0.52,0.133l0.246,0.061
		c0.075,0.022,0.107,0.047,0.162,0.067c0.396,0.16,0.755,0.589,1.093,1.047c0.341,0.459,0.662,0.941,1.028,1.365
		c0.117,0.129,0.087,0.147,0.124,0.198c0.029,0.034,0.048,0.089,0.059,0.152c0.042,0.1,0.049,0.237,0.063,0.353
		c0.013,0.246-0.005,0.465-0.033,0.618c-0.016,0.149-0.039,0.233-0.039,0.233c-0.054,0.584,0.212,1.226,0.771,1.446
		C23.716,15.764,24.446,15.246,24.542,14.312z"/>
</g>
<g>
	<path fill="#177EA4" d="M22.482,22.111c0.004-0.006,0.015,0.107,0.066,0.264c0.049,0.16,0.121,0.396,0.214,0.698
		c0.197,0.546,0.479,1.33,0.822,2.282c0.158,0.467,0.295,0.92,0.406,1.469c0.054,0.284,0.11,0.578,0.167,0.878
		c0.047,0.214,0.157,0.917,0.406,1.353c0.135,0.218,0.279,0.437,0.486,0.574c0.094,0.08,0.193,0.154,0.306,0.22l0.161,0.103
		c0.027,0.016,0.054,0.036,0.081,0.049l0.096-0.018c0.509-0.065,0.972-0.275,1.391-0.689c0.469-0.455,0.625-0.739,0.843-1.098
		c0.162-0.26,0.16-0.421,0.23-0.588l0.167-0.516c0.111-0.344,0.224-0.689,0.336-1.036l0.168-0.521c0.021-0.1,0.12-0.271,0.191-0.434
		c0.294-0.644,0.638-1.292,0.899-1.985c0.14-0.343,0.273-0.684,0.349-1.047c0.089-0.361,0.179-0.713,0.268-0.981
		c0.192-0.566,0.49-1.343,0.442-2.006c0.008-1.227,0.28-2.312,0.343-3.304c0.052-0.515,0.019-0.887,0.084-1.243
		c0.041-0.352,0.12-0.649,0.164-0.896c0.104-0.463,0.257-1.366-0.145-2.345c-0.348-0.891-0.56-2.017-0.846-3.323
		c-0.298-1.296-0.922-2.816-2.261-3.827c-0.675-0.539-1.536-0.731-2.103-1.022c-0.153-0.066-0.296-0.148-0.425-0.249
		c-0.132-0.098-0.275-0.169-0.392-0.298l-0.367-0.345c-0.129-0.116-0.321-0.31-0.496-0.44c-0.755-0.558-1.644-0.763-2.411-0.846
		c-0.778-0.09-1.499-0.094-2.146-0.144c-0.648-0.047-1.223-0.136-1.689-0.309l-0.174-0.063L17.86,0.346
		c-0.17-0.052-0.337-0.104-0.501-0.154c-0.331-0.089-0.655-0.113-0.965-0.165c-1.247-0.099-2.168,0.105-2.785,0.186
		c-0.602,0.096-0.941,0.15-0.941,0.15c-0.528,0.103-0.867,0.634-0.798,1.229c0.067,0.586,0.631,0.995,1.205,0.883
		c0,0,0.307-0.066,0.853-0.185c0.538-0.115,1.272-0.285,2.089-0.299c0.411-0.013,0.835,0.033,1.261,0.157
		c0.163,0.02,0.597,0.194,0.915,0.244c0.346,0.077,0.693,0.118,1.033,0.142c1.351,0.105,2.727-0.083,3.762,0.221
		c0.264,0.064,0.473,0.185,0.68,0.308l0.766,0.644c0.617,0.515,1.473,0.877,2.113,1.057c0.629,0.196,1.023,0.394,1.432,0.81
		c0.407,0.371,0.734,0.839,0.983,1.302c0.493,0.94,0.673,2.041,0.932,2.978c0.14,0.472,0.248,0.904,0.399,1.277
		c0.068,0.187,0.133,0.361,0.191,0.52c0.042,0.127,0.081,0.242,0.115,0.345c0.132,0.429,0.181,0.893-0.097,1.939
		c-0.058,0.25-0.109,0.558-0.141,0.868c-0.011,0.159-0.021,0.322-0.03,0.488c-0.014,0.126-0.028,0.254-0.042,0.384
		c-0.017,0.247-0.069,0.544-0.128,0.854c-0.056,0.315-0.114,0.641-0.174,0.974c-0.069,0.322-0.106,0.727-0.143,1.126
		c-0.016,0.161-0.031,0.324-0.045,0.487c-0.021,0.146-0.011,0.311-0.051,0.442l-0.118,0.402l-0.207,0.497L29.2,21.088l-0.156,0.506
		c-0.052,0.164-0.095,0.33-0.152,0.494l-0.219,0.485c-0.132,0.321-0.314,0.655-0.49,0.987l-0.548,1.029
		c-0.257,0.455-0.322,0.79-0.476,1.143c-0.134,0.354-0.268,0.706-0.399,1.054l-0.191,0.503c-0.011,0.042-0.115,0.192-0.202,0.308
		c-0.042,0.062-0.092,0.118-0.14,0.174c-0.032,0.038-0.028,0.032-0.04,0.043c-0.018,0.015-0.034,0.027-0.053,0.036
		c-0.032,0.023-0.077,0.024-0.097-0.017c-0.021-0.034-0.023-0.065-0.025-0.103c-0.036-0.28-0.072-0.553-0.107-0.818
		c-0.083-0.618-0.203-1.316-0.36-1.855c-0.303-1.109-0.593-1.944-0.748-2.515c-0.082-0.286-0.124-0.492-0.163-0.641
		c-0.041-0.149-0.037-0.208-0.041-0.211c-0.038-0.223-0.201-0.405-0.38-0.511c-0.196-0.121-0.47-0.253-0.763-0.288
		c-0.295-0.036-0.564,0.059-0.758,0.306C22.485,21.463,22.425,21.78,22.482,22.111z"/>
</g>
<g>
	<path fill="#177EA4" d="M11.76,18.577c0,0-0.034,0.225-0.095,0.625c-0.059,0.401-0.138,0.98-0.297,1.686
		c-0.167,0.706-0.261,1.544-0.578,2.443c-0.14,0.451-0.291,0.916-0.457,1.385c-0.085,0.232-0.173,0.467-0.26,0.704l-0.228,0.565
		c-0.037,0.1-0.083,0.204-0.145,0.313c-0.055,0.088-0.159,0.261-0.272,0.191c-0.186-0.155-0.28-0.307-0.485-0.653
		c-0.491-0.892-0.911-1.809-1.236-2.655c-0.162-0.42-0.305-0.842-0.387-1.202c-0.106-0.41-0.208-0.848-0.376-1.154
		c-0.141-0.315-0.267-0.6-0.377-0.845c-0.062-0.241-0.114-0.444-0.155-0.604c0-0.003-0.001-0.005-0.004-0.015l-0.002-0.02
		c-0.058-0.335-0.064-0.883-0.046-1.616c0.008-0.363-0.002-0.781-0.061-1.236c-0.045-0.227-0.083-0.469-0.173-0.706
		c-0.084-0.215-0.17-0.438-0.259-0.663c-0.144-0.392-0.148-0.794-0.054-1.295c0.084-0.5,0.196-1.058,0.229-1.641
		c0.031-0.29,0.008-0.584,0.015-0.88c0.003-0.286,0.013-0.442,0.069-0.698c0.106-0.469,0.305-0.958,0.53-1.426
		c0.221-0.496,0.5-0.865,0.768-1.44c0.286-0.585,0.42-1.048,0.61-1.395c0.113-0.151,0.224-0.3,0.331-0.445
		c0.118-0.119,0.243-0.225,0.379-0.315C9.009,5.405,9.416,5.25,9.855,4.944c0.208-0.155,0.418-0.314,0.583-0.516
		c0.133-0.156,0.259-0.304,0.377-0.442c0.174-0.21,0.327-0.392,0.451-0.542c0.123-0.15,0.269-0.222,0.343-0.292
		c0.082-0.064,0.125-0.098,0.125-0.098c0.26-0.229,0.182-0.808-0.171-1.286C11.212,1.292,10.63,1.16,10.27,1.481
		c0,0-0.201,0.171-0.524,0.505C9.608,2.177,9.44,2.408,9.247,2.674C9.158,2.798,9.063,2.931,8.961,3.07
		C8.904,3.133,8.866,3.213,8.779,3.282C8.633,3.436,8.389,3.58,7.968,3.844c-0.414,0.255-0.913,0.697-1.21,1.201
		C6.605,5.297,6.43,5.555,6.344,5.827L6.189,6.233L6.082,6.578c-0.07,0.253-0.148,0.402-0.219,0.604
		C5.804,7.366,5.646,7.623,5.544,7.86C5.313,8.35,5.104,8.862,4.934,9.412c-0.161,0.552-0.318,1.122-0.263,1.84
		c0.119,0.965-0.007,1.74-0.104,2.786c-0.023,0.524,0.042,1.171,0.299,1.624c0.08,0.174,0.157,0.343,0.232,0.505
		c0.07,0.122,0.084,0.279,0.131,0.406c0.126,0.555,0.118,1.11,0.128,1.485c0.018,0.221-0.042,0.446,0.088,1.458
		c-0.002-0.013-0.003-0.025-0.008-0.059c0.066,0.284,0.121,0.689,0.254,1.007c0.117,0.296,0.247,0.624,0.387,0.979
		c0.097,0.322,0.122,0.542,0.247,1.124c0.107,0.468,0.25,0.924,0.408,1.394c0.158,0.47,0.337,0.944,0.535,1.427
		c0.103,0.24,0.206,0.483,0.311,0.728l0.17,0.367l0.287,0.553c0.216,0.396,0.474,0.783,0.757,1.04
		c0.151,0.072,0.303,0.145,0.457,0.207c0.161,0.107,0.381,0.049,0.536-0.007c0.331-0.094,0.64-0.305,0.904-0.681
		c0.141-0.167,0.265-0.36,0.378-0.572c0.114-0.185,0.255-0.454,0.295-0.539c0.49-0.977,0.863-1.918,1.201-2.785
		c0.352-0.869,0.526-1.736,0.748-2.436c0.214-0.703,0.334-1.307,0.431-1.72c0.094-0.415,0.147-0.647,0.147-0.647
		c0.088-0.433-0.319-0.834-0.91-0.896C12.386,17.938,11.841,18.196,11.76,18.577z"/>
</g>
</svg>
