<?xml version="1.0" encoding="utf-8"?>
<!-- Generator: Adobe Illustrator 16.0.0, SVG Export Plug-In . SVG Version: 6.00 Build 0)  -->
<!DOCTYPE svg PUBLIC "-//W3C//DTD SVG 1.1//EN" "http://www.w3.org/Graphics/SVG/1.1/DTD/svg11.dtd">
<svg version="1.1" id="Layer_1" xmlns="http://www.w3.org/2000/svg" xmlns:xlink="http://www.w3.org/1999/xlink" x="0px" y="0px"
	 width="35px" height="30px" viewBox="0 0 35 30" enable-background="new 0 0 35 30" xml:space="preserve">
<g>
	<g>
		<path fill="#177EA4" d="M9.968,15.052c0,0-0.054-0.09-0.155-0.259c-0.106-0.173-0.253-0.426-0.502-0.767
			c-0.261-0.329-0.565-0.794-1.308-1.215c-0.38-0.204-0.908-0.318-1.406-0.256c-0.496,0.063-0.915,0.279-1.216,0.466
			c-0.658,0.385-1.328,1.019-1.732,1.849c-0.398,0.83-0.53,1.777-0.448,2.676c0.038,0.453,0.118,0.901,0.248,1.348
			c0.066,0.221,0.143,0.454,0.237,0.672c0.094,0.199,0.188,0.4,0.284,0.602c0.377,0.805,0.879,1.622,1.601,2.313
			c0.703,0.699,1.723,1.197,2.74,1.253c1.017,0.071,1.952-0.182,2.79-0.486c0.842-0.312,1.611-0.692,2.347-1.053
			c0.734-0.359,1.457-0.729,2.125-1.095c2.684-1.471,4.73-2.868,5.713-3.532c0.972-0.675,3.147-2.052,5.538-4.194
			c1.188-1.075,2.438-2.344,3.491-3.878c0.518-0.776,1.049-1.5,1.392-2.557c0.059-0.272,0.125-0.569,0.115-0.864
			c-0.021-0.302-0.048-0.61-0.157-0.868c-0.08-0.286-0.199-0.518-0.322-0.742c-0.119-0.243-0.25-0.434-0.378-0.631
			C30.485,3.081,30,2.26,29.355,1.531c-0.324-0.366-0.688-0.719-1.146-1.011c-0.454-0.291-1.021-0.516-1.657-0.519
			c-0.312-0.006-0.631,0.106-0.915,0.185c-0.216,0.096-0.429,0.191-0.642,0.285c-0.38,0.207-0.755,0.403-1.082,0.626
			c-0.677,0.42-1.262,0.88-1.805,1.336c-0.135,0.121-0.268,0.256-0.396,0.38l-0.19,0.188l-0.204,0.267
			c-0.299,0.367-0.393,0.703-0.537,1.035c-0.224,0.721-0.188,1.434-0.065,1.932c0.126,0.489,0.272,0.831,0.374,1.034
			c0.101,0.213,0.157,0.324,0.157,0.324c0.393,0.673,1.16,0.813,1.704,0.444c0.554-0.373,0.677-1.129,0.386-1.628
			c0,0-0.036-0.068-0.104-0.193c-0.032-0.062-0.081-0.142-0.12-0.229c-0.034-0.082-0.072-0.176-0.114-0.283
			c-0.045-0.199-0.11-0.395-0.05-0.632c-0.004-0.116,0.082-0.267,0.13-0.424c0.081-0.101,0.105-0.181,0.311-0.383
			c0.653-0.692,1.789-1.614,2.879-2.159c0.164-0.096,0.191-0.066,0.261-0.112c0.063-0.035,0.131-0.017,0.227-0.01
			c0.179,0.025,0.406,0.121,0.648,0.292c0.488,0.342,0.983,0.919,1.442,1.548c0.441,0.651,1.034,1.387,1.233,1.893l0.079,0.191
			c0.006,0.058,0.009,0.114,0.021,0.17c0.042,0.107-0.007,0.236-0.01,0.36c-0.049,0.267-0.168,0.586-0.338,0.921
			c-0.702,1.391-1.585,2.65-2.551,3.709c-1.917,2.134-3.846,3.611-4.825,4.34c-0.984,0.728-3.121,2.222-5.949,3.732
			c-1.412,0.768-2.979,1.505-4.658,2.207c-1.62,0.693-3.356,1.141-4.459,0.387c-0.566-0.359-1.042-0.971-1.397-1.682
			c-0.203-0.327-0.329-0.729-0.489-1.085c-0.141-0.34-0.213-0.666-0.266-1.016c-0.101-0.689-0.039-1.337,0.146-1.831
			c0.2-0.484,0.501-0.83,0.888-1.075c0.194-0.119,0.437-0.235,0.509-0.254c0.086-0.008,0.073,0.004,0.101,0.01
			c0.061,0.017,0.302,0.246,0.456,0.492c0.165,0.248,0.294,0.484,0.382,0.646c0.088,0.166,0.135,0.255,0.135,0.255
			c0.303,0.574,1.063,0.849,1.638,0.51C10.063,16.371,10.299,15.679,9.968,15.052z"/>
	</g>
	<g>
		<path fill="#177EA4" d="M11.653,17.697c0,0,1-0.343,2.228-1.042c1.242-0.692,2.771-1.695,4.267-2.758
			c1.498-1.059,2.729-1.97,3.6-2.672c0.439-0.343,0.78-0.636,1.015-0.842c0.242-0.198,0.374-0.307,0.374-0.307
			c0.303-0.512,0.06-1.17-0.536-1.464c-0.594-0.294-1.261-0.225-1.48,0.159c0,0-0.049,0.388-0.359,1.07
			c-0.316,0.675-0.962,1.628-2.115,2.563c-1.44,1.186-3.35,2.074-4.844,2.512c-0.749,0.212-1.394,0.344-1.835,0.374
			c-0.222,0.026-0.396,0.041-0.509,0.035c-0.115,0-0.176,0-0.176,0c-0.221,0.046-0.38,0.186-0.512,0.408
			c-0.131,0.227-0.232,0.534-0.236,0.864c-0.003,0.331,0.104,0.626,0.313,0.833C11.054,17.639,11.364,17.758,11.653,17.697z"/>
	</g>
</g>
<g>
	<path fill="#177EA4" d="M25.748,28.857c0,0-0.025-0.788-0.259-2.051c-0.142-0.634-0.273-1.388-0.771-2.235
		c-0.254-0.416-0.637-0.867-1.198-1.142c-0.571-0.28-1.191-0.255-1.683-0.149c-1.009,0.221-1.747,0.721-2.466,1.174
		c-0.706,0.47-1.345,0.952-1.93,1.386c-1.164,0.877-2.124,1.543-2.616,1.807c-0.489,0.253-1.571,0.854-3.01,0.976
		c-1.4,0.205-3.104-0.354-4.205-1.432c-0.549-0.522-0.982-1.139-1.143-1.734c-0.165-0.588-0.155-1.108,0-1.486
		c0.054-0.195,0.192-0.348,0.25-0.495c0.105-0.137,0.222-0.243,0.297-0.338c0.141-0.195,0.322-0.26,0.304-0.267
		c0.171-0.155-0.014-0.723-0.406-1.259c-0.391-0.536-0.964-0.745-1.272-0.461c0.008,0.014-0.181,0.126-0.423,0.473
		c-0.118,0.173-0.262,0.385-0.429,0.63c-0.143,0.263-0.261,0.599-0.396,0.947c-0.173,0.736-0.255,1.69,0.083,2.564
		c0.303,0.869,0.825,1.706,1.527,2.33c1.37,1.289,3.286,1.979,4.939,1.899c0.206-0.009,0.408-0.011,0.601-0.029
		c0.188-0.035,0.37-0.071,0.546-0.106c0.358-0.062,0.671-0.146,0.96-0.229c0.582-0.192,1.024-0.385,1.31-0.524
		c0.589-0.261,1.758-0.887,3.088-1.725c0.668-0.412,1.386-0.871,2.123-1.297c0.73-0.417,1.513-0.835,2.188-1.003
		c0.337-0.096,0.627-0.1,0.769-0.043c0.143,0.05,0.224,0.131,0.347,0.313c0.234,0.396,0.361,1.06,0.423,1.598
		c0.052,0.562,0.059,1.043,0.061,1.383c0.001,0.338-0.012,0.533-0.012,0.533c0,0.307,0.538,0.567,1.2,0.586
		C25.209,29.466,25.747,29.201,25.748,28.857z"/>
</g>
</svg>
