<?xml version="1.0" encoding="utf-8"?>
<!-- Generator: Adobe Illustrator 16.0.0, SVG Export Plug-In . SVG Version: 6.00 Build 0)  -->
<!DOCTYPE svg PUBLIC "-//W3C//DTD SVG 1.1//EN" "http://www.w3.org/Graphics/SVG/1.1/DTD/svg11.dtd">
<svg version="1.1" id="Layer_1" xmlns="http://www.w3.org/2000/svg" xmlns:xlink="http://www.w3.org/1999/xlink" x="0px" y="0px"
	 width="35px" height="30px" viewBox="0 0 35 30" enable-background="new 0 0 35 30" xml:space="preserve">
<path fill="#177EA4" d="M29.903,15.437c0,0-0.116-0.004-0.334-0.008c-0.217,0.01-0.533,0.023-0.937,0.041
	c-0.401,0.018-0.889,0.037-1.448,0.059c-0.203,0.019-0.426,0.038-0.648,0.057c0.288,0.422,0.516,1.062,0.634,1.936
	c0.363,0.029,0.703,0.064,0.993,0.105c0.475,0.059,0.851,0.105,1.107,0.137c0.252,0.049,0.388,0.076,0.388,0.076
	c0.973,0.129,1.862-0.303,1.987-0.959C31.771,16.226,30.992,15.576,29.903,15.437z"/>
<g>
	<path fill="#177EA4" d="M35,26.144c0,0-0.057-2.58-0.146-6.57c-0.043-1.994-0.094-4.342-0.149-6.896
		c-0.014-0.638-0.027-1.29-0.042-1.952c-0.011-0.351-0.005-0.62-0.03-1.045c-0.022-0.52-0.246-1.031-0.594-1.417
		c-0.346-0.39-0.823-0.663-1.341-0.761c-0.13-0.015-0.26-0.027-0.391-0.035c-0.127-0.006-0.184,0.001-0.279,0.001L31.507,7.48
		c-0.695,0.015-1.396,0.029-2.102,0.044C18.117,7.762,5.896,7.981,2.009,8.001C1.725,8.009,1.407,8.113,1.097,8.303
		C0.8,8.51,0.525,8.829,0.386,9.247C0.305,9.445,0.293,9.704,0.285,9.904c-0.002,0.201-0.004,0.408-0.007,0.623
		c-0.005,0.429-0.011,0.886-0.018,1.369c-0.03,1.928-0.065,4.262-0.105,6.846c-0.046,2.584-0.097,5.418-0.149,8.347L0,27.361
		c0.004,0.115,0.016,0.248,0.029,0.371c0.043,0.248,0.12,0.496,0.25,0.715c0.25,0.443,0.665,0.795,1.154,0.967
		c0.244,0.09,0.496,0.125,0.796,0.119l0.579-0.064c0.36-0.043,0.733-0.064,1.101-0.098c1.473-0.137,2.959-0.203,4.431-0.26
		c1.469-0.09,2.928-0.072,4.351-0.074c1.423,0.002,2.809-0.033,4.147,0.07c2.673,0.143,5.131,0.273,7.221,0.385
		c1.044,0.057,1.995,0.107,2.837,0.152c0.84,0.053,1.567,0.133,2.166,0.182c1.194,0.105,1.869,0.166,1.869,0.166
		c1.099,0.072,2.035-0.406,2.09-1.072c0.055-0.664-0.803-1.264-1.914-1.338c0,0-0.619-0.035-1.719-0.098
		c-0.549-0.031-1.219-0.07-1.991-0.115c-0.774-0.018-1.651-0.039-2.613-0.063c-3.854-0.047-9.059-0.354-14.555-0.057
		c-1.372,0.068-2.758,0.191-4.143,0.283c-0.692,0.043-1.385,0.141-2.074,0.209l-1.033,0.111l-0.901,0.121
		c-0.214,0.004-0.505-0.195-0.558-0.453c-0.017-0.029-0.004-0.068-0.014-0.1c-0.002-0.02-0.008-0.027-0.01-0.055l-0.001-0.125
		l-0.003-0.496c-0.003-0.329-0.005-0.657-0.008-0.981c-0.01-1.303-0.02-2.568-0.03-3.779c-0.027-4.852-0.049-8.85-0.061-10.89
		c0-0.255,0.001-0.546,0.001-0.869c0-0.081,0.001-0.164,0.001-0.249c0-0.082-0.002-0.191,0.009-0.212
		c0.001-0.085,0.028-0.167,0.059-0.25c0.072-0.164,0.226-0.313,0.42-0.376c0.049-0.012,0.096-0.038,0.151-0.032
		c0.027-0.002,0.053-0.005,0.08-0.011l0.17,0C2.52,9.097,2.763,9.098,3.012,9.1c1.996,0.012,4.402,0.027,7.059,0.044
		c5.313,0.04,11.632,0.087,17.698,0.133c1.515,0.012,3.015,0.024,4.479,0.037c0.237,0.009,0.438,0.202,0.467,0.417
		c-0.003,0.032,0.003,0.047,0.009,0.09l-0.002,0.265l-0.004,0.527c-0.003,0.35-0.007,0.697-0.01,1.041
		c-0.022,2.747-0.043,5.272-0.062,7.42c-0.037,4.293-0.062,7.07-0.062,7.07c0,1.108,0.541,2.007,1.208,2.007S35,27.252,35,26.144z"
		/>
</g>
<g>
	<path fill="#177EA4" d="M25.397,5.508c0,0-0.075-0.319-0.283-0.868c-0.191-0.544-0.517-1.33-1.101-2.164
		c-0.58-0.82-1.485-1.706-2.677-2.106c-1.176-0.426-2.479-0.44-3.708-0.258c-1.24,0.192-2.319,0.481-3.283,0.874
		c-0.964,0.375-1.794,0.977-2.312,1.668c-0.524,0.687-0.739,1.339-0.878,1.75c-0.074,0.213-0.119,0.374-0.146,0.481
		c-0.031,0.108-0.047,0.165-0.047,0.165c-0.04,0.815,0.563,1.373,1.221,1.318c0.67-0.055,1.16-0.617,1.19-1.183
		c0,0-0.04-0.115-0.082-0.337c-0.031-0.217-0.086-0.556-0.018-0.959C13.34,3.487,13.512,2.99,14,2.531
		c0.478-0.461,1.224-0.879,2.154-1.166c1.158-0.356,2.46-0.511,3.599-0.28c1.141,0.233,2.014,0.895,2.471,1.674
		c0.478,0.773,0.639,1.583,0.722,2.148c0.067,0.577,0.059,0.923,0.059,0.923c0.09,0.594,0.623,1.096,1.302,1.084
		C24.96,6.906,25.51,6.284,25.397,5.508z"/>
</g>
<g>
	<path fill="#177EA4" d="M8.377,16.993c-0.562-0.016-1.089-0.031-1.565-0.044c-1.052-0.021-1.881-0.066-2.448-0.093
		c-0.571-0.008-0.876-0.012-0.876-0.012c-1.069,0.145-1.835,0.797-1.713,1.451c0.123,0.656,1.026,1.08,2.015,0.945
		c0,0,0.737-0.305,2.272-0.574c0.677-0.143,1.521-0.268,2.508-0.381C8.441,17.853,8.381,17.414,8.377,16.993z"/>
	<path fill="#177EA4" d="M15.476,16.818c-1.455,0.131-2.802,0.185-4.036,0.2c0.022,0.27,0.033,0.613,0.029,1
		c0.475-0.035,0.963-0.07,1.482-0.104c3.736-0.26,7.833-0.58,11.03-0.539c0.072-0.668,0.242-1.197,0.468-1.597
		C21.869,16.052,18.691,16.524,15.476,16.818z"/>
</g>
<g>
	<path fill="#177EA4" d="M7.328,20.435c0,0,0.075,0.293,0.246,0.848c0.078,0.188,0.245,0.867,0.563,1.346
		c0.309,0.496,0.833,0.869,1.499,0.891c0.655-0.023,1.341-0.377,1.66-1.064c0.07-0.176,0.139-0.355,0.211-0.535l0.075-0.279
		l0.049-0.213c0.049-0.283,0.093-0.568,0.122-0.855c0.109-1.148,0.141-2.33,0.066-3.564c-0.065-0.574-0.08-1.181-0.194-1.738
		c-0.035-0.146-0.053-0.273-0.1-0.432c-0.057-0.164-0.095-0.333-0.175-0.488c-0.131-0.323-0.329-0.604-0.578-0.801
		c-0.515-0.432-1.228-0.308-1.691,0.029c-0.494,0.313-0.876,0.9-1.055,1.195c-0.42,0.707-0.599,1.33-0.711,1.764
		c-0.106,0.436-0.138,0.682-0.138,0.682c0.014,0.426,0.225,0.795,0.492,1c0.28,0.209,0.61,0.258,0.927,0.154
		c0.632-0.234,1.005-0.783,0.995-1.263c0,0-0.051-0.095-0.111-0.298c-0.054-0.201-0.119-0.52-0.09-0.944
		c0.017-0.21,0.053-0.45,0.137-0.688c0.052-0.18,0.091-0.31,0.232-0.465c0.124-0.154,0.398-0.229,0.577-0.054
		c0.087,0.079,0.16,0.183,0.215,0.302c0.031,0.058,0.052,0.129,0.079,0.196c0.028,0.102,0.057,0.204,0.085,0.31
		c0.061,0.279,0.104,0.573,0.132,0.875l0.037,0.502c0.015,0.133,0.022,0.281,0.025,0.432c0.01,0.607-0.038,1.242-0.118,1.85
		c-0.083,0.605-0.2,1.197-0.364,1.719c-0.042,0.129-0.082,0.258-0.132,0.371c-0.032,0.072-0.054,0.1-0.084,0.143
		c-0.054,0.076-0.116,0.133-0.187,0.152c-0.15,0.037-0.28-0.059-0.295-0.174c-0.023-0.123,0.015-0.148,0.027-0.246
		c-0.041-0.539-0.027-0.916-0.027-0.916c-0.063-0.639-0.658-1.182-1.322-1.096C7.748,19.165,7.256,19.718,7.328,20.435z"/>
</g>
<g>
	<path fill="#177EA4" d="M22.655,20.118c0,0,0.026,0.32,0.113,0.891c0.048,0.285,0.11,0.633,0.221,1.035
		c0.055,0.199,0.125,0.416,0.211,0.643c0.05,0.113,0.101,0.23,0.152,0.35c0.067,0.133,0.137,0.273,0.231,0.414
		c0.373,0.604,1.041,1.109,1.803,0.967c0.737-0.104,1.345-0.891,1.566-1.412c0.52-1.137,0.624-2.383,0.675-3.588
		c0.045-1.215,0.013-2.341-0.283-3.374c-0.073-0.259-0.178-0.509-0.305-0.754c-0.164-0.278-0.37-0.536-0.62-0.724
		c-0.499-0.383-1.155-0.435-1.655-0.215c-0.501,0.188-0.918,0.641-1.124,0.919c-0.224,0.288-0.361,0.54-0.477,0.747
		c-0.209,0.414-0.296,0.639-0.296,0.639c-0.164,0.85,0.416,1.479,1.072,1.461c0.674-0.014,1.194-0.502,1.298-0.994
		c0,0-0.029-0.111-0.036-0.313c-0.008-0.104-0.002-0.226,0.012-0.369c0.012-0.064,0.018-0.15,0.038-0.219l0.029-0.113l0.01-0.07
		c0.017-0.086,0.061-0.201,0.176-0.277c0.112-0.077,0.289-0.08,0.441,0.024c0.129,0.067,0.337,0.357,0.481,0.718
		c0.146,0.357,0.244,0.785,0.296,1.252c0.111,1.164,0.023,2.51-0.315,3.617c-0.163,0.541-0.448,1.088-0.715,1.354
		c-0.168,0.162-0.413,0.188-0.519,0.031c-0.052-0.066-0.073-0.143-0.081-0.201c-0.017-0.088-0.061-0.266-0.08-0.439
		c-0.043-0.346-0.043-0.682-0.021-0.963c0.039-0.564,0.112-0.906,0.112-0.906c0.033-0.602-0.42-1.189-1.083-1.293
		C23.33,18.851,22.699,19.356,22.655,20.118z"/>
</g>
</svg>
