<?xml version="1.0" encoding="utf-8"?>
<!-- Generator: Adobe Illustrator 16.0.0, SVG Export Plug-In . SVG Version: 6.00 Build 0)  -->
<!DOCTYPE svg PUBLIC "-//W3C//DTD SVG 1.1//EN" "http://www.w3.org/Graphics/SVG/1.1/DTD/svg11.dtd">
<svg version="1.1" id="Layer_1" xmlns="http://www.w3.org/2000/svg" xmlns:xlink="http://www.w3.org/1999/xlink" x="0px" y="0px"
	 width="100px" height="100px" viewBox="0 0 100 100" enable-background="new 0 0 100 100" xml:space="preserve">
<g>
	<g>
		<g>
			<path fill="#177EA4" d="M30.192,63.546c0,0,0.524,0.692,1.477,1.845c0.955,1.15,2.342,2.756,4.162,4.527
				c1.823,1.76,4.068,3.731,6.894,5.323c1.423,0.771,2.998,1.453,4.729,1.771c1.723,0.338,3.587,0.249,5.302-0.296
				c3.284-1.04,5.961-2.991,7.83-5.123c1.889-2.135,3.052-4.33,3.959-6.096c0.852-1.766,1.52-3.15,1.976-4.094
				c0.449-0.909,0.71-1.367,0.71-1.367c0.106-0.423,0.114-0.841,0.039-1.247c-0.07-0.371-0.225-0.74-0.445-1.094
				c-0.43-0.619-1.103-1.286-1.969-1.673c-0.863-0.386-1.801-0.352-2.65,0.164c-0.392,0.228-0.75,0.549-1.046,0.945
				c-0.275,0.368-0.485,0.801-0.604,1.273c0,0,0.034,0.379,0.047,1.112c0.014,0.725,0.014,1.772-0.103,3.109
				c-0.134,1.319-0.389,2.939-1.063,4.701c-0.674,1.747-1.828,3.65-3.778,5.083l-0.453,0.345c-0.16,0.104-0.334,0.187-0.5,0.281
				l-1.016,0.554l-1.104,0.409l-0.551,0.205l-0.529,0.125c-1.415,0.307-2.875,0.108-4.232-0.427
				c-2.733-1.118-4.94-3.408-6.559-5.531c-1.63-2.153-2.738-4.225-3.444-5.7c-0.709-1.479-1.024-2.376-1.024-2.376
				c-0.793-1.464-2.703-2.084-4.472-1.39C30.01,59.599,29.226,61.756,30.192,63.546z"/>
		</g>
	</g>
</g>
<g>
	<g>
		<g>
			<path fill="#177EA4" d="M70.371,48.025c0,0,0.005-0.312-0.032-0.908c-0.027-0.591-0.102-1.472-0.327-2.611
				c-0.241-1.131-0.63-2.58-1.661-4.146c-0.505-0.762-1.442-1.632-1.808-1.894c-0.494-0.421-1.01-0.897-1.552-1.435
				c-1.097-1.06-2.241-2.367-3.78-3.678c-0.773-0.647-1.663-1.299-2.74-1.78c-0.532-0.243-1.118-0.431-1.721-0.541
				c-0.327-0.074-0.529-0.086-0.781-0.123l-0.725-0.098c-0.966-0.129-1.91-0.284-2.809-0.51c-0.908-0.234-1.708-0.521-2.25-1.025
				c-1.687-1.543-3.536-2.563-5.038-3.907c-0.746-0.723-1.388-1.478-1.991-2.254l-0.206-0.062c-0.067-0.027-0.163,0.068-0.243,0.096
				l-0.5,0.259c-0.335,0.169-0.64,0.363-0.958,0.541c-0.624,0.382-1.222,0.807-1.803,1.249c-0.899,0.67-1.628,1.16-2.399,1.44
				c-0.465,0.219-0.926,0.448-1.304,0.793c-0.369,0.335-0.702,0.76-0.942,1.132c-0.468,0.741-0.765,1.408-1.068,2.011
				c-0.578,1.206-1.139,2.143-1.79,2.822c-0.154,0.178-0.321,0.33-0.492,0.468c-0.158,0.151-0.334,0.272-0.508,0.386
				c-0.164,0.124-0.338,0.229-0.521,0.314c-0.2,0.11-0.268,0.126-0.654,0.379c-1.296,0.795-2.172,1.977-2.7,2.993
				c-1.023,2.077-1.212,3.591-1.428,4.575c-0.166,0.966-0.252,1.472-0.252,1.472c0.095,2.68,1.761,4.329,3.639,4.325
				c1.918-0.006,3.307-2.292,3.231-4.465c0,0-0.122-0.371-0.271-1.064c-0.13-0.667-0.333-1.745-0.199-2.771
				c0.066-0.518,0.191-0.986,0.5-1.39l0.127-0.152c0.03-0.032,0.023-0.043,0.083-0.095l0.186-0.16
				c0.246-0.219,0.505-0.425,0.747-0.668c0.484-0.486,0.947-1.028,1.358-1.63c0.821-1.201,1.4-2.62,1.849-3.953
				c0.234-0.666,0.451-1.325,0.704-1.829c0.135-0.259,0.223-0.408,0.365-0.58c0.151-0.151,0.322-0.284,0.525-0.381
				c0.728-0.324,1.678-0.979,2.482-1.614l0.574-0.447l0.437-0.324c0.15-0.102,0.304-0.2,0.461-0.292l0.245-0.125
				c0.04-0.016,0.083-0.051,0.121-0.052l0.087,0.113c0.183,0.245,0.371,0.484,0.583,0.695l0.152,0.164l0.184,0.17l0.654,0.577
				l2.538,2.017c0.367,0.326,0.768,0.64,1.08,0.976l0.248,0.247c0.077,0.078,0.153,0.156,0.325,0.306
				c0.292,0.25,0.609,0.546,0.9,0.697c1.204,0.745,2.334,1.097,3.402,1.412c1.067,0.304,2.092,0.546,3.053,0.787
				c0.627,0.176,1.174,0.516,1.732,0.997c1.11,0.964,2.107,2.409,3.099,3.788c0.492,0.692,1.002,1.392,1.513,2.055
				c0.265,0.333,0.516,0.66,0.79,0.976c0.113,0.14,0.312,0.354,0.352,0.428c0.035,0.068,0.072,0.13,0.113,0.188
				c0.273,0.543,0.424,1.311,0.427,2.028c0.021,0.708-0.063,1.333-0.129,1.752c-0.066,0.422-0.123,0.652-0.123,0.652
				c-0.096,0.958,0.087,1.911,0.501,2.748c0.421,0.832,1.056,1.553,1.956,1.877c0.883,0.32,1.89,0.126,2.727-0.58
				C69.555,50.69,70.225,49.489,70.371,48.025z"/>
		</g>
	</g>
</g>
<g>
	<g>
		<g>
			<path fill="#177EA4" d="M63.773,72.964c0,0.001,0.421,1.913,1.772,5.639c0.648,1.86,1.571,4.216,2.342,7.019
				c0.368,1.352,0.647,2.967,0.957,4.884c0.041,0.246,0.083,0.495,0.125,0.747l0.07,0.394l0.101,0.517
				c0.164,0.888,0.421,1.809,0.777,2.649c0.38,0.825,0.879,1.562,1.513,2.16c0.626,0.62,1.396,1.025,2.191,1.492
				c0.597-0.074,1.183-0.144,1.785-0.293c0.604-0.161,1.219-0.485,1.837-0.887c0.62-0.406,1.22-0.966,1.805-1.565
				c0.28-0.319,0.573-0.63,0.849-0.987c0.209-0.267,0.357-0.485,0.538-0.739c0.344-0.502,0.657-1.01,0.982-1.604
				c0.274-0.421,0.357-0.833,0.447-1.077c0.089-0.278,0.181-0.562,0.272-0.848c0.355-1.128,0.779-2.367,1.121-3.531
				c0.18-0.592,0.361-1.193,0.547-1.803c0.093-0.306,0.186-0.612,0.279-0.922l0.132-0.435c0.032-0.119,0.03-0.112,0.108-0.285
				c0.556-1.188,1.123-2.404,1.698-3.637c1.169-2.485,2.393-5.228,2.989-8.123c0.076-0.341,0.146-0.742,0.226-1.033l0.236-0.872
				c0.194-0.604,0.421-1.207,0.672-1.884c0.534-1.362,0.81-2.952,0.834-4.343c-0.022-1.479,0.088-2.546,0.153-3.758
				c0.168-1.227,0.33-2.413,0.485-3.547c0.141-1.167,0.36-2.221,0.396-3.33c0.034-0.541,0.068-1.064,0.101-1.569
				c0.019-0.463,0.036-0.909,0.053-1.336c0.091-1.694,0.444-3.092,0.655-4.178c0.085-0.386,0.177-0.834,0.242-1.364
				c0.037-0.261,0.077-0.536,0.118-0.825c0.007-0.298,0.014-0.61,0.021-0.935c0.06-0.653-0.098-1.348-0.188-2.098
				c-0.136-0.734-0.423-1.484-0.656-2.274c-0.54-1.421-1.022-3.032-1.44-4.81c-0.426-1.778-0.77-3.725-1.258-5.813
				c-0.5-2.076-1.143-4.33-2.342-6.469c-1.204-2.139-2.723-4.129-4.864-5.785c-1.07-0.816-2.331-1.46-3.53-1.925
				c-1.204-0.472-2.289-0.825-3.231-1.295c-0.948-0.461-1.793-1.05-2.597-1.749c-0.408-0.333-0.784-0.73-1.165-1.114
				c-0.154-0.163-0.484-0.462-0.741-0.698c-0.279-0.24-0.534-0.517-0.841-0.72c-1.191-0.881-2.521-1.51-3.843-1.926
				c-1.316-0.396-2.626-0.646-3.865-0.778C60.153,5.014,57.85,5,55.781,4.84c-2.072-0.15-3.908-0.435-5.4-0.987
				c-0.463-0.166-0.919-0.33-1.368-0.49c-0.537-0.205-1.074-0.34-1.603-0.479c-1.06-0.272-2.097-0.418-3.085-0.517
				c-1.979-0.174-3.729-0.063-5.209,0.087c-1.48,0.157-2.715,0.349-3.701,0.508c-1.921,0.312-3.005,0.487-3.005,0.487
				c-1.682,0.336-2.769,2.033-2.545,3.922c0.223,1.881,2.024,3.189,3.859,2.823c0,0,0.983-0.215,2.729-0.598
				C38.15,9.242,40.52,8.68,43.129,8.62c1.301-0.023,2.666,0.109,4.03,0.502c0.419,0.125,0.845,0.253,1.276,0.382
				c0.538,0.169,1.084,0.329,1.634,0.424c0.553,0.12,1.109,0.227,1.655,0.284c0.555,0.078,1.107,0.141,1.649,0.169
				c2.188,0.161,4.33,0.103,6.381,0.119c2.048,0.01,4.022,0.103,5.642,0.59c0.843,0.205,1.51,0.59,2.171,0.985
				c0.153,0.115,0.292,0.248,0.443,0.366c0.163,0.139,0.257,0.186,0.529,0.445c0.475,0.426,0.921,0.865,1.45,1.259
				c0.999,0.819,2.167,1.541,3.366,2.102c1.2,0.567,2.419,0.942,3.422,1.262c1.013,0.32,1.813,0.62,2.54,1.021
				c0.729,0.384,1.383,0.934,2.036,1.522c1.302,1.259,2.369,2.684,3.139,4.193c1.559,3.019,2.143,6.528,2.967,9.527
				c0.403,1.506,0.818,2.887,1.251,4.086c0.206,0.601,0.441,1.15,0.635,1.658c0.172,0.468,0.253,0.769,0.37,1.102
				c0.316,0.927,0.493,2.044,0.212,3.701c-0.134,0.829-0.393,1.873-0.648,3.078c-0.103,0.634-0.229,1.286-0.308,1.976
				c-0.023,0.352-0.048,0.709-0.072,1.071c-0.024,0.346-0.039,0.778-0.075,1.014c-0.059,0.556-0.118,1.123-0.18,1.703
				c-0.063,0.588-0.22,1.287-0.327,1.943c-0.251,1.391-0.509,2.826-0.773,4.296c-0.085,0.839-0.17,1.687-0.257,2.542
				c-0.049,0.478-0.05,0.723-0.07,1.075c-0.015,0.332-0.026,0.667-0.08,0.959c-0.144,1.279-0.495,2.055-1.215,3.726
				c-0.161,0.416-0.328,0.798-0.474,1.279c-0.146,0.452-0.312,0.968-0.38,1.263l-0.271,1.035c-0.103,0.335-0.226,0.652-0.336,0.979
				c-0.457,1.297-1.063,2.589-1.731,3.881c-0.653,1.284-1.39,2.591-2.091,3.885c-0.177,0.332-0.353,0.661-0.527,0.988L79.81,81.58
				c-0.151,0.277-0.225,0.576-0.283,0.703c-0.253,0.676-0.501,1.341-0.745,1.995c-0.244,0.649-0.483,1.287-0.719,1.912
				c-0.231,0.585-0.458,1.157-0.679,1.715c-0.215,0.542-0.424,1.069-0.627,1.583l-0.042,0.101l-0.011,0.01l-0.164,0.247
				c-0.125,0.189-0.263,0.374-0.397,0.554c-0.136,0.18-0.275,0.351-0.414,0.516c-0.2,0.233-0.115,0.122-0.162,0.167
				c-0.04,0.028-0.077,0.049-0.111,0.063c-0.068,0.028-0.128,0.032-0.172,0.003c-0.067-0.047-0.099-0.121-0.107-0.186l-0.013-0.114
				c-0.064-0.457-0.128-0.904-0.19-1.341c-0.126-0.951-0.258-1.931-0.405-2.838c-0.142-0.905-0.332-1.894-0.532-2.724
				c-0.832-3.368-1.679-5.726-2.23-7.547c-1.139-3.607-1.298-4.807-1.298-4.807c-0.169-0.757-0.59-1.246-1.237-1.658
				c-0.624-0.37-1.454-0.758-2.399-0.882c-0.933-0.124-1.844,0.215-2.457,1.02C63.819,70.833,63.551,71.967,63.773,72.964z"/>
		</g>
	</g>
</g>
<g>
	<g>
		<g>
			<path fill="#177EA4" d="M29.596,61.531c0,0-0.021,0.172-0.059,0.495c-0.059,0.353-0.146,0.871-0.257,1.533
				c-0.221,1.328-0.533,3.237-0.995,5.549c-0.111,0.578-0.227,1.183-0.348,1.811c-0.123,0.62-0.27,1.211-0.41,1.851
				c-0.151,0.627-0.268,1.306-0.458,1.945c-0.213,0.695-0.431,1.407-0.653,2.134c-0.448,1.441-0.93,2.93-1.458,4.431
				c-0.264,0.75-0.54,1.503-0.832,2.249c-0.262,0.689-0.703,1.685-0.726,1.805c-0.12,0.316-0.264,0.657-0.462,1
				c-0.1,0.17-0.211,0.345-0.357,0.491c-0.135,0.147-0.371,0.26-0.515,0.121c-0.292-0.205-0.517-0.51-0.754-0.829l-0.35-0.51
				l-0.191-0.305l-0.107-0.178l-0.148-0.267c-1.571-2.851-2.911-5.783-3.956-8.49c-0.514-1.347-0.968-2.685-1.24-3.856
				c-0.063-0.243-0.141-0.665-0.211-0.985c-0.057-0.345-0.169-0.668-0.278-0.983c-0.195-0.646-0.467-1.193-0.695-1.727
				c-0.493-1.041-0.914-1.909-1.218-2.679c-0.133-0.383-0.247-0.736-0.34-1.059c-0.059-0.322-0.112-0.613-0.158-0.869
				c-0.001-0.007-0.002-0.015-0.009-0.049l-0.009-0.062c-0.184-1.071-0.206-2.819-0.146-5.164c0.026-1.166-0.007-2.498-0.194-3.955
				c-0.041-0.364-0.153-0.736-0.23-1.114c-0.092-0.377-0.15-0.769-0.325-1.145c-0.152-0.382-0.307-0.769-0.464-1.16
				c-0.146-0.372-0.284-0.625-0.396-0.952c-0.457-1.243-0.429-2.542-0.143-4.138c0.277-1.584,0.637-3.387,0.744-5.248
				c0.068-0.929,0.074-1.872,0.043-2.815c-0.031-0.535,0.032-0.77,0.037-1.139c-0.013-0.326,0.127-0.73,0.177-1.089
				c0.339-1.5,0.976-3.062,1.696-4.562c0.366-0.753,0.759-1.492,1.168-2.219c0.216-0.369,0.431-0.737,0.645-1.103
				c0.21-0.336,0.458-0.87,0.68-1.296c0.421-0.887,0.76-1.776,1.048-2.527c0.29-0.788,0.569-1.359,0.864-1.912
				c0.318-0.513,0.677-1.004,1.059-1.419c0.201-0.181,0.392-0.362,0.574-0.545c0.215-0.156,0.428-0.31,0.637-0.461
				c0.853-0.578,2.151-1.074,3.557-2.051c0.337-0.208,0.665-0.522,0.981-0.778c0.324-0.253,0.612-0.558,0.883-0.876
				c0.262-0.298,0.561-0.646,0.758-0.895c0.149-0.196,0.293-0.386,0.433-0.57c0.55-0.784,1.053-1.267,1.449-1.697
				c0.397-0.431,0.799-0.706,1.024-0.923c0.239-0.209,0.366-0.319,0.366-0.319c0.88-0.731,0.699-2.563-0.438-4.088
				c-1.13-1.517-2.994-2.003-4.146-1.032c0,0-0.626,0.599-1.675,1.729c-0.244,0.305-0.515,0.644-0.81,1.014
				c-0.146,0.186-0.298,0.379-0.456,0.58c-0.128,0.197-0.261,0.401-0.399,0.612c-0.137,0.211-0.279,0.43-0.425,0.655
				c-0.073,0.113-0.147,0.227-0.222,0.343l-0.113,0.175l-0.07,0.083c-0.186,0.201-0.304,0.456-0.583,0.679
				c-0.466,0.49-1.245,0.949-2.591,1.794c-1.334,0.806-2.891,2.25-3.896,3.816c-1.072,1.543-1.753,3.58-2.143,4.956
				c-0.108,0.351-0.217,0.704-0.332,1.009c-0.108,0.332-0.229,0.627-0.353,0.905c-0.067,0.151-0.106,0.272-0.193,0.452l-0.277,0.555
				C10.02,26.633,9.833,27,9.652,27.403c-0.742,1.563-1.41,3.204-1.951,4.958c-0.514,1.767-1.017,3.584-0.842,5.885
				c0.151,1.565,0.204,2.917,0.106,4.356c-0.082,1.433-0.333,2.828-0.442,4.538c-0.145,1.67,0.178,3.75,0.936,5.226
				c0.45,0.861,0.555,1.16,0.763,1.587c0.112,0.193,0.182,0.416,0.234,0.646c0.063,0.223,0.125,0.44,0.186,0.653
				c0.405,1.773,0.375,3.549,0.409,4.747c0.003,0.338,0.007,0.728,0.013,1.383c0.03,0.695,0.03,1.647,0.269,3.276
				c-0.006-0.04-0.011-0.079-0.026-0.187c0.124,1.007,0.38,2.18,0.808,3.24c0.4,1.096,0.914,2.143,1.251,3.119
				c0.106,0.256,0.161,0.487,0.225,0.723c0.077,0.235,0.132,0.478,0.155,0.729c0.051,0.319,0.103,0.644,0.155,0.972
				c0.078,0.427,0.15,0.775,0.24,1.155c0.347,1.49,0.798,2.953,1.304,4.454c0.509,1.497,1.079,3.019,1.709,4.56
				c0.316,0.771,0.646,1.546,0.996,2.325l0.542,1.173l0.398,0.803c0.145,0.297,0.321,0.622,0.5,0.951
				c0.708,1.29,1.51,2.584,2.436,3.35c0.461,0.39,0.934,0.607,1.45,0.733l0.412,0.11c0.076,0.019,0.152,0.029,0.229,0.055
				l0.232-0.019c0.305-0.04,0.587-0.086,0.857-0.149c1.059-0.3,2.018-1.108,2.892-2.228c0.43-0.569,0.831-1.194,1.207-1.849
				l0.547-0.997l0.388-0.751c1.563-3.12,2.753-6.13,3.833-8.903c0.257-0.697,0.543-1.334,0.77-2.079
				c0.219-0.715,0.433-1.411,0.64-2.086c0.44-1.379,0.711-2.54,1.026-3.665c0.616-2.218,1.044-4.06,1.361-5.333
				c0.156-0.64,0.278-1.139,0.36-1.478c0.076-0.372,0.116-0.568,0.116-0.568c0.27-1.476-1.054-2.822-2.941-3.007
				C31.515,59.626,29.803,60.396,29.596,61.531z"/>
		</g>
	</g>
</g>
</svg>
